<?xml version="1.0"?>
<svg width="20" height="160"
     xmlns="http://www.w3.org/2000/svg" version="1.1"
     xmlns:xlink="http://www.w3.org/1999/xlink">

    <defs>
        <pattern id="LineFill"
                 patternUnits="userSpaceOnUse"
                 patternTransform="rotate(0)"
                 height="7"
                 width="7">
            <line x1="0" y1="2.5" x2="7" y2="2.5"
                  stroke="black"
                  stroke-width="1"
                  stroke-opacity="0.7"
                  transform="transform(0.5,0.5)"/>
        </pattern>
        <pattern id="Line45Fill"
                 patternUnits="userSpaceOnUse"
                 patternTransform="rotate(45)"
                 height="7"
                 width="7">
            <line x1="0" y1="0.5" x2="7" y2="0.5"
                  stroke="black"
                  stroke-width="1"
                  stroke-opacity="0.7"/>
        </pattern>
        <pattern id="Line90Fill"
                 patternUnits="userSpaceOnUse"
                 patternTransform="rotate(90)"
                 height="7"
                 width="7">
            <line x1="0" y1="0.5" x2="7" y2="0.5"
                  stroke="black"
                  stroke-width="1"
                  stroke-opacity="0.7"/>
        </pattern>
        <pattern id="Line135Fill"
                 patternUnits="userSpaceOnUse"
                 patternTransform="rotate(135)"
                 height="7"
                 width="7">
            <line x1="0" y1="0.5" x2="7" y2="0.5"
                  stroke="black"
                  stroke-width="1"
                  stroke-opacity="0.7"/>
        </pattern>
        <pattern id="CrossFill"
                 patternUnits="userSpaceOnUse"
                 patternTransform="rotate(0)"
                 height="7"
                 width="7">
            <polyline points="0,0.5 6.5,0.5 6.5,7"
                      fill="none"
                      stroke="black"
                      stroke-width="1"
                      stroke-opacity="0.7"/>
        </pattern>
        <pattern id="Cross45Fill"
                 patternUnits="userSpaceOnUse"
                 patternTransform="rotate(45)"
                 height="7"
                 width="7">
            <polyline points="0,0.5 6.5,0.5 6.5,7"
                      fill="none"
                      stroke="black"
                      stroke-width="1"
                      stroke-opacity="0.7"/>
        </pattern>
        <pattern id="PlusFill"
                 patternUnits="userSpaceOnUse"
                 patternTransform="rotate(0)"
                 height="18"
                 width="18">
            <path d="M 4,0 L 4,8 M 0,4 L 8,4 M 13,9 L 13,17 M 9,13 L 17,13"
                  stroke="black"
                  stroke-width="2"
                  stroke-opacity="0.7"
                  fill="none"/>
        </pattern>
        <pattern id="TriangleFill"
                 width="20" height="20"
                 patternUnits="userSpaceOnUse">
            <g fill-opacity="0.7">
                <polygon points="4,0 8,8 0,8"/>
                <polygon points="14,10 18,18 10,18"/>
            </g>
	    </pattern>
    </defs>

    <rect x="0" y="0" width="20" height="20" fill="url(#LineFill)" stroke="none"/>
    <rect x="0" y="20" width="20" height="20" fill="url(#Line45Fill)" stroke="none"/>
    <rect x="0" y="40" width="20" height="20" fill="url(#Line90Fill)" stroke="none"/>
    <rect x="0" y="60" width="20" height="20" fill="url(#Line135Fill)" stroke="none"/>
    <rect x="0" y="80" width="20" height="20" fill="url(#CrossFill)" stroke="none"/>
    <rect x="0" y="100" width="20" height="20" fill="url(#Cross45Fill)" stroke="none"/>
    <rect x="0" y="120" width="20" height="20" fill="url(#TriangleFill)" stroke="none"/>
    <rect x="0" y="140" width="20" height="20" fill="url(#PlusFill)" stroke="none"/>

</svg>
